<svg width="18" height="15" viewBox="0 0 18 15" fill="none" xmlns="http://www.w3.org/2000/svg">
<path d="M18 1.73609C17.2919 2.04068 16.5836 2.2309 15.8758 2.3073C16.6752 1.82762 17.216 1.14995 17.4978 0.274347C16.7664 0.708269 15.9861 1.00514 15.1563 1.16511C14.4252 0.388478 13.5269 0 12.4607 0C11.4405 0 10.5707 0.359715 9.85075 1.0793C9.13135 1.79885 8.7716 2.6687 8.7716 3.68896C8.7716 3.96302 8.802 4.24485 8.86296 4.53416C7.3553 4.45803 5.94101 4.07924 4.61985 3.39777C3.29876 2.71622 2.17757 1.80822 1.25628 0.673746C0.921245 1.24468 0.753675 1.86534 0.753675 2.53537C0.753675 3.16735 0.902125 3.75372 1.19923 4.29434C1.49615 4.83487 1.89599 5.27263 2.39855 5.6077C1.80454 5.58482 1.24871 5.42869 0.731035 5.13934V5.18502C0.731035 6.07595 1.01085 6.85815 1.57043 7.53221C2.13008 8.2062 2.83635 8.63044 3.68907 8.80565C3.36924 8.8893 3.04557 8.93119 2.71821 8.93119C2.50499 8.93119 2.27273 8.91218 2.02151 8.87438C2.25753 9.61281 2.69158 10.2198 3.32348 10.696C3.9555 11.1718 4.67125 11.4171 5.47077 11.4327C4.13072 12.4833 2.60408 13.0086 0.890885 13.0086C0.563415 13.0086 0.266546 12.9937 0 12.9631C1.71325 14.067 3.60155 14.619 5.66503 14.619C6.97467 14.619 8.20438 14.4117 9.35375 13.9966C10.5038 13.5818 11.4859 13.0259 12.3007 12.329C13.1153 11.6324 13.8178 10.831 14.4079 9.92492C14.9979 9.0188 15.4375 8.07282 15.7271 7.08681C16.0163 6.10059 16.161 5.11286 16.161 4.12284C16.161 3.90962 16.1572 3.7498 16.1495 3.64315C16.8731 3.11802 17.4898 2.48212 18 1.73609Z" fill="white"/>
</svg>
